Coordinates
version=1
nRows=24
nColumns=24
inDegrees=yes

Units are S.I. units (second, meters, Newtons, ...)
Angles are in degrees.

endheader
time	pelvis_tilt	pelvis_list	pelvis_rotation	pelvis_tx	pelvis_ty	pelvis_tz	hip_flexion_r	hip_adduction_r	hip_rotation_r	knee_angle_r	ankle_angle_r	subtalar_angle_r	mtp_angle_r	hip_flexion_l	hip_adduction_l	hip_rotation_l	knee_angle_l	ankle_angle_l	subtalar_angle_l	mtp_angle_l	lumbar_extension	lumbar_bending	lumbar_rotation
      6.98000000	     -0.24665882	      1.73145535	      4.67603236	      1.10302970	      0.67841624	      0.18293402	     27.83906162	      0.25062426	      2.97259555	    -53.50380005	     10.49101983	    -20.71520619	      0.00000000	     -7.05271310	      7.25033837	     -1.74570372	     -0.41690578	     13.90269985	     -8.32164739	      0.00000000	    -15.63870250	     -1.46605137	    -12.57272656
      6.99000000	     -0.48976266	      1.58966081	      5.15192299	      1.11061855	      0.67750937	      0.18252517	     28.16298042	      0.08502194	      3.07794072	    -49.99003851	     10.28235050	    -20.50064811	      0.00000000	     -7.34135848	      7.04161902	     -1.08548529	     -0.73051214	     14.53407552	     -8.41874349	      0.00000000	    -15.49987273	     -1.24708144	    -12.79537331
      7.00000000	     -0.53396462	      1.43623893	      5.55479740	      1.11838459	      0.67671343	      0.18216014	     28.06010023	     -0.04487971	      3.20502804	    -46.06696296	      9.34328435	    -20.98231703	      0.00000000	     -7.88176319	      6.80663950	     -0.42063900	     -0.98624199	     15.12090079	     -8.68210925	      0.00000000	    -15.58443791	     -1.00206036	    -12.96882051
      7.01000000	     -0.58685180	      1.34396066	      5.96133132	      1.12631533	      0.67583229	      0.18175260	     27.78169705	     -0.29827622	      3.20920416	    -41.84572668	      8.22722813	    -21.67266059	      0.00000000	     -8.40873652	      6.62915070	      0.13886138	     -1.28658765	     15.71516592	     -8.77229813	      0.00000000	    -15.64535993	     -0.80890329	    -13.19854513
      7.02000000	     -0.65194322	      1.30629164	      6.32177523	      1.13444118	      0.67483327	      0.18133396	     27.32840606	     -0.62182496	      3.15783565	    -37.33894470	      6.81925605	    -22.83240223	      0.00000000	     -8.95678556	      6.51229459	      0.64727833	     -1.56757157	     16.31184706	     -8.82431670	      0.00000000	    -15.66946269	     -0.65834537	    -13.39187313
      7.03000000	     -0.73298344	      1.35020140	      6.65438413	      1.14276207	      0.67369272	      0.18092501	     26.73591787	     -1.05248239	      2.96697337	    -32.64311985	      5.32983430	    -24.26726001	      0.00000000	     -9.52489626	      6.47893804	      1.12578989	     -1.83491822	     16.88015318	     -8.88353302	      0.00000000	    -15.65967841	     -0.60726909	    -13.55035564
      7.04000000	     -0.87533600	      1.48782404	      6.97713503	      1.15128483	      0.67236015	      0.18049735	     26.10241858	     -1.61553495	      2.52399574	    -27.89309078	      4.03332844	    -25.62350549	      0.00000000	    -10.07321835	      6.54575962	      1.58435063	     -2.08042905	     17.37844230	     -8.98441875	      0.00000000	    -15.55571272	     -0.65677426	    -13.70125728
      7.05000000	     -1.04546435	      1.73520381	      7.29600954	      1.16002003	      0.67087269	      0.18007325	     25.44647993	     -2.29969146	      1.77083896	    -23.25820299	      3.26589721	    -26.36790574	      0.00000000	    -10.67381805	      6.71741693	      2.10161886	     -2.24958023	     17.83635108	     -9.05108416	      0.00000000	    -15.40090206	     -0.82537118	    -13.90767881
      7.06000000	     -1.38373427	      2.09832290	      7.58983204	      1.16893832	      0.66913693	      0.17969274	     25.02299775	     -3.10898056	      0.51336958	    -18.97145538	      2.96726968	    -26.17238141	      0.00000000	    -11.10859263	      7.02344852	      2.45836090	     -2.46334387	     18.17942668	     -9.05686029	      0.00000000	    -15.01436973	     -1.17053996	    -14.11790268
      7.07000000	     -1.46601430	      2.41202230	      7.89941398	      1.17809541	      0.66756568	      0.17942150	     24.32412096	     -3.74994605	     -1.05715378	    -15.01723479	      2.85850155	    -25.54167780	      0.00000000	    -11.90303393	      7.20417304	      2.96225544	     -2.55519264	     18.50372741	     -9.11514991	      0.00000000	    -14.92055872	     -1.43203045	    -14.25643379
      7.08000000	     -1.59747937	      2.72435679	      8.18805865	      1.18741452	      0.66595271	      0.17928121	     23.81217740	     -4.29531890	     -3.00642242	    -11.74867884	      3.20695226	    -23.69937323	      0.00000000	    -12.64976403	      7.36436950	      3.39804987	     -2.66727286	     18.71953368	     -9.16051739	      0.00000000	    -14.74219753	     -1.72309631	    -14.38160349
      7.09000000	     -1.75156338	      2.97146212	      8.45258848	      1.19686243	      0.66437939	      0.17933896	     23.43511855	     -4.63147936	     -4.84550656	     -9.20635007	      3.50980613	    -21.44854611	      0.00000000	    -13.32410389	      7.42743848	      3.68952731	     -2.86599717	     18.87706693	     -9.07730919	      0.00000000	    -14.52224695	     -1.97465576	    -14.47974201
      7.10000000	     -1.88203466	      3.10526439	      8.68191850	      1.20638987	      0.66294681	      0.17960905	     23.10692028	     -4.70206196	     -6.08074083	     -7.38054288	      3.42407441	    -19.49862073	      0.00000000	    -13.93420986	      7.34195867	      3.84194934	     -3.19605776	     19.01564155	     -8.86204909	      0.00000000	    -14.32609506	     -2.12785548	    -14.52353916
      7.11000000	     -2.09231394	      3.13828484	      8.83307987	      1.21597102	      0.66161371	      0.18009494	     22.90196779	     -4.54275689	     -6.23059889	     -6.23635677	      2.60319829	    -18.62005509	      0.00000000	    -14.34766827	      7.16135033	      3.90618272	     -3.68798580	     19.01254575	     -8.76547204	      0.00000000	    -14.02123394	     -2.21209197	    -14.48758122
      7.12000000	     -2.17956582	      2.98429475	      8.96491406	      1.22553746	      0.66067082	      0.18068717	     22.63728914	     -4.12805627	     -5.73283499	     -5.84515752	      1.82486415	    -18.04551920	      0.00000000	    -14.69620970	      6.76099142	      3.93804365	     -4.46943409	     18.98597400	     -8.61619210	      0.00000000	    -13.88052566	     -2.05032398	    -14.43089616
      7.13000000	     -2.12491184	      2.78674023	      8.99097820	      1.23512334	      0.66016774	      0.18149901	     22.17342387	     -3.53301218	     -3.93096212	     -5.92034830	      0.19260271	    -19.41725700	      0.00000000	    -14.94942761	      6.29685157	      3.47359719	     -5.65036276	     19.03703878	     -7.90212695	      0.00000000	    -13.93711544	     -1.85546055	    -14.28585674
      7.14000000	     -2.24625292	      2.50038565	      8.96533854	      1.24459289	      0.65990436	      0.18238590	     22.03632567	     -2.84197723	     -1.84533712	     -6.67046386	     -1.30592989	    -21.28559808	      0.00000000	    -14.73123662	      5.80672168	      3.06968301	     -7.29877339	     18.88526011	     -7.56737059	      0.00000000	    -13.80792829	     -1.57015914	    -14.12759659
      7.15000000	     -2.23324780	      2.19691591	      8.78253252	      1.25397396	      0.66018444	      0.18341702	     21.86978714	     -2.04860440	      0.32533869	     -7.87842264	     -2.49307489	    -23.26168425	      0.00000000	    -14.41308418	      5.34033226	      2.62365493	     -9.32940343	     18.34628506	     -7.53424496	      0.00000000	    -13.89386105	     -1.24360647	    -13.87804462
      7.16000000	     -2.19248770	      1.91570448	      8.46574618	      1.26323352	      0.66091202	      0.18455243	     21.72908429	     -1.23404368	      2.32409486	     -9.28292644	     -3.23840972	    -24.96038841	      0.00000000	    -13.82805597	      4.95900261	      2.14377105	    -11.85354209	     17.40247862	     -7.83901542	      0.00000000	    -14.07612958	     -0.92824286	    -13.58809398
      7.17000000	     -2.06110010	      1.66809590	      7.97072665	      1.27237745	      0.66208634	      0.18578957	     21.49927987	     -0.42454819	      3.88907167	    -10.67527940	     -3.28317672	    -25.70853329	      0.00000000	    -13.02760287	      4.66854106	      1.50437701	    -14.88315920	     16.02543607	     -8.48327169	      0.00000000	    -14.44153611	     -0.62650053	    -13.17769616
      7.18000000	     -2.01688598	      1.56162905	      7.45555462	      1.28141929	      0.66349550	      0.18702393	     21.15844207	      0.20592621	      5.42761975	    -11.67283942	     -3.49973737	    -26.75660214	      0.00000000	    -11.85229443	      4.56861326	      0.99628367	    -18.36100389	     13.86208468	     -9.47781142	      0.00000000	    -14.77053899	     -0.46790894	    -12.91917895
      7.19000000	     -1.87560897	      1.44349843	      6.76565842	      1.29039318	      0.66514842	      0.18835678	     20.59078079	      0.83823047	      6.55574809	    -12.34551615	     -3.26136445	    -26.88936017	      0.00000000	    -10.44218872	      4.44380877	      0.08754848	    -22.31324170	     11.32799850	    -10.42261704	      0.00000000	    -15.27024124	     -0.27525371	    -12.50330628
      7.20000000	     -1.89314835	      1.51015530	      6.09010076	      1.29924751	      0.66677221	      0.18962916	     19.99551645	      1.18718185	      7.49251793	    -12.63673713	     -2.85172490	    -26.90657640	      0.00000000	     -8.63313659	      4.54936942	     -0.56934909	    -26.51389335	      7.78897058	    -12.03999735	      0.00000000	    -15.63573688	     -0.30689115	    -12.18608526
      7.21000000	     -1.90353356	      1.54017387	      5.29677877	      1.30803729	      0.66832858	      0.19100018	     19.27427593	      1.54584403	      8.22873069	    -12.65444606	     -2.25431686	    -26.63002516	      0.00000000	     -6.55124110	      4.55111309	     -1.54384644	    -30.99692426	      4.04233804	    -13.48657642	      0.00000000	    -16.02286400	     -0.31518763	    -11.69368000
